{"title":"Flypaper.2011.DVDSCR.XViD-F3","uid":6683145,"size":615866234,"categoryP":"video","categoryS":"movies","magnet":"?xt=urn:btih:0c70e2d8bf07ad56e26e981c544c9f2d7d933203&amp;dn=Flypaper.2011.DVDSCR.XViD-F3&amp;tr=udp%3A%2F%2Ftracker.openbittorrent.com%3A80&amp;tr=udp%3A%2F%2Fopen.demonii.com%3A1337&amp;tr=udp%3A%2F%2Ftracker.coppersurfer.tk%3A6969&amp;tr=udp%3A%2F%2Fexodus.desync.com%3A6969","seeders":0,"leechers":0,"uploader":".Dude.","files":-1,"time":1316283197,"description":"General\n\nComplete name : Flypaper.avi\nFormat : AVI\nFormat/Info : Audio Video Interleave\nFile size : 587 MiB\nDuration : 1h 27mn\nOverall bit rate : 941 Kbps\n\nVideo\n\nID : 0\nFormat : MPEG-4 Visual\nFormat profile : Advanced Simple@L5\nFormat settings, BVOP : 2\nFormat settings, QPel : No\nFormat settings, GMC : No warppoints\nFormat settings, Matrix : Default (H.263)\nCodec ID : XVID\nCodec ID/Hint : XviD\nDuration : 1h 27mn\nBit rate : 800 Kbps\nWidth : 640 pixels\nHeight : 280 pixels\nDisplay aspect ratio : 3.251\nFrame rate : 25.000 fps\nColor space : YUV\nChroma subsampling : 4:2:0\nBit depth : 8 bits\nScan type : Progressive\nCompression mode : Lossy\nBits/(Pixel*Frame) : 0.179\nStream size : 499 MiB (85%)\nWriting library : XviD 63\n\nAudio\n\nID : 1\nFormat : MPEG Audio\nFormat version : Version 1\nFormat profile : Layer 3\nCodec ID : 55\nCodec ID/Hint : MP3\nDuration : 1h 27mn\nBit rate mode : Constant\nBit rate : 128 Kbps\nChannel(s) : 2 channels\nSampling rate : 48.0 KHz\nCompression mode : Lossy\nStream size : 79.9 MiB (14%)\nAlignment : Split accross interleaves\nInterleave, duration : 24 ms (0.60 video frame)\nWriting library : LAME3.98.4\n &lt;a href=&quot;\nhttp://www.imdb.com/title/tt1541160/&quot; rel=&quot;nofollow&quot; target=&quot;_NEW&quot;&gt;\nhttp://www.imdb.com/title/tt1541160/&lt;/a&gt;\n\nscreens: &lt;a href=&quot;\nhttp://images.oneddl.com/images/9upw8i7s9y55x4rqr7j.png&quot; rel=&quot;nofollow&quot; target=&quot;_NEW&quot;&gt;\nhttp://images.oneddl.com/images/9upw8i7s9y55x4rqr7j.png&lt;/a&gt; &lt;a href=&quot;\nhttp://images.oneddl.com/images/5z41naqoy1bvvxw8jff.png&quot; rel=&quot;nofollow&quot; target=&quot;_NEW&quot;&gt;\nhttp://images.oneddl.com/images/5z41naqoy1bvvxw8jff.png&lt;/a&gt; &lt;a href=&quot;\nhttp://images.oneddl.com/images/aajf70cfjjlndacqggo4.png&quot; rel=&quot;nofollow&quot; target=&quot;_NEW&quot;&gt;\nhttp://images.oneddl.com/images/aajf70cfjjlndacqggo4.png&lt;/a&gt; &lt;a href=&quot;\nhttp://images.oneddl.com/images/fwu5hjmslz58iqyzo7w.png&quot; rel=&quot;nofollow&quot; target=&quot;_NEW&quot;&gt;\nhttp://images.oneddl.com/images/fwu5hjmslz58iqyzo7w.png&lt;/a&gt;\n\n","torrent":{"xt":"urn:btih:0c70e2d8bf07ad56e26e981c544c9f2d7d933203","amp;dn":"Flypaper.2011.DVDSCR.XViD-F3","amp;tr":["udp%3A%2F%2Ftracker.openbittorrent.com%3A80","udp%3A%2F%2Fopen.demonii.com%3A1337","udp%3A%2F%2Ftracker.coppersurfer.tk%3A6969","udp%3A%2F%2Fexodus.desync.com%3A6969"],"infoHash":"0c70e2d8bf07ad56e26e981c544c9f2d7d933203","infoHashBuffer":{"type":"Buffer","data":[12,112,226,216,191,7,173,86,226,110,152,28,84,76,159,45,125,147,50,3]},"announce":[],"urlList":[]}}